<?xml version="1.0" standalone="no"?>
<!DOCTYPE svg PUBLIC "-//W3C//DTD SVG 1.1//EN" "http://www.w3.org/Graphics/SVG/1.1/DTD/svg11.dtd" >
<!--
2013-9-30: Created.
-->
<svg>
<metadata>
Created by iconfont
</metadata>
<defs>

<font id="x-icon" horiz-adv-x="1024" >
  <font-face
    font-family="x-icon"
    font-weight="500"
    font-stretch="normal"
    units-per-em="1024"
    ascent="896"
    descent="-128"
  />
    <missing-glyph />
    
    <glyph glyph-name="back2" unicode="&#58900;" d="M511.995 896C229.23 896 0 666.764 0 384c0-282.78 229.23-512 511.995-512C794.78-128 1024 101.21400000000006 1024 384 1024 666.764 794.78 896 511.995 896zM512.016-76.69799999999998c-253.903 0-460.461 207.403-460.461 461.08 0 253.683 206.557 460.056 460.461 460.056 253.893 0 460.45-206.374 460.45-460.056C972.471 130.70600000000002 765.914-76.69799999999998 512.016-76.69799999999998zM742.486 409.428L324.495 409.428l152.193 163.22c9.992 9.997 9.992 26.193 0 36.19-9.998 9.997-26.193 9.997-36.185 0L231.758 383.30499999999995l205.544-227.123c5.001-4.996 11.55-7.497 18.098-7.497s13.096 2.501 18.092 7.497c9.998 9.997 9.998 26.188 0 36.185L322.889 358.249l419.603 0c14.136 0 25.595 11.453 25.595 25.584C768.081 397.964 756.623 409.428 742.486 409.428z"  horiz-adv-x="1024" />

    
    <glyph glyph-name="back" unicode="&#59118;" d="M575.936 0.06399999999996453c-70.656 0-128 57.344-128 128L447.936 384l320 0L383.936 895.936 0 384l320 0 0-255.936c0-141.376 114.624-256 256-256l448 0 0 128L575.936 0.06399999999996453 575.936 0.06399999999996453zM575.936 0.06399999999996453"  horiz-adv-x="1024" />

    
    <glyph glyph-name="xiangshangjiantou" unicode="&#58927;" d="M771.512499 381.709841 511.614214 831.867354 251.715929 381.709841 414.441057 381.709841 414.441057-63.653483 608.786347-63.653483 608.786347 381.709841Z"  horiz-adv-x="1024" />

    
    <glyph glyph-name="xiangxiajiantou" unicode="&#58928;" d="M771.512499 386.50403 511.614214-63.653483 251.715929 386.50403 414.441057 386.50403 414.441057 831.867354 608.786347 831.867354 608.786347 386.50403Z"  horiz-adv-x="1024" />

    
    <glyph glyph-name="user" unicode="&#58918;" d="M512 831C265.146 831 65 630.854 65 384c0-246.853 200.147-447 447-447 246.854 0 447 200.147 447 447C959 630.854 758.854 831 512 831zM512 801.2c230.048 0 417.199-187.152 417.199-417.2 0-104.822-38.951-200.671-103.018-274.034-1.603 4.685-3.203 9.385-5.021 13.968-31.08 78.547-94.129 143.471-173.474 178.365-0.218 0.087-0.421 0.159-0.626 0.262 31.647 33.38 51.189 78.367 51.189 128.002 0 102.875-83.377 186.25-186.25 186.25-102.874 0-186.25-83.375-186.25-186.25 0-49.648 19.555-94.652 51.218-128.046-0.394-0.175-0.742-0.291-1.15-0.466-78.851-34.646-141.898-99.57-172.98-178.117-1.818-4.598-3.418-9.283-5.019-13.968C133.753 183.32899999999995 94.8 279.178 94.8 384 94.8 614.048 281.952 801.2 512 801.2zM616.314 314.303c-9.313-8.366-19.541-15.729-30.657-21.697-21.975-11.77-47.03-18.491-73.657-18.491-26.628 0-51.714 6.722-73.686 18.507-11.117 5.968-21.316 13.315-30.629 21.682-31.909 28.664-52.135 70.091-52.135 116.26 0 86.272 70.178 156.45 156.45 156.45s156.449-70.177 156.449-156.45C668.449 384.394 648.225 342.967 616.314 314.303zM221.101 85.34699999999998c1.062 3.885 2.095 7.813 3.302 11.494 26.963 82.721 92.5 151.082 176.909 184.185 30.965-22.96 69.174-36.714 110.688-36.714 41.5 0 79.693 13.735 110.644 36.686 83.799-32.349 149.858-100.999 176.968-184.156 1.193-3.666 2.226-7.594 3.288-11.494C727.687 12.067000000000007 625.06-33.198999999999955 512-33.198999999999955S296.313 12.067000000000007 221.101 85.34699999999998z"  horiz-adv-x="1024" />

    
    <glyph glyph-name="qrcode" unicode="&#58899;" d="M568.889116 896l0-455.110884 455.108837 0L1023.997953 896 568.889116 896zM967.109349 497.777721l-341.333674 0L625.775674 839.111395l341.333674 0L967.109349 497.777721zM113.778233 554.6673490000001l227.555442 0L341.333674 782.222791 113.778233 782.222791 113.778233 554.6673490000001zM0.001023-127.99897699999997l455.110884 0L455.111907 327.111907 0.001023 327.111907 0.001023-127.99897699999997zM56.889628 270.22227899999996l341.333674 0 0-341.333674L56.889628-71.11139500000002 56.889628 270.22227899999996zM910.220744 782.222791L682.665302 782.222791l0-227.555442 227.555442 0L910.220744 782.222791zM0.001023 440.889116l455.110884 0L455.111907 896 0.001023 896 0.001023 440.889116zM56.889628 839.111395l341.333674 0 0-341.333674L56.889628 497.777721 56.889628 839.111395zM910.220744-127.99897699999997l113.778233 0L1023.998977 99.556465 910.220744 99.556465 910.220744-127.99897699999997zM910.220744 213.334698l113.778233 0L1023.998977 327.111907 910.220744 327.111907 910.220744 213.334698zM113.778233-14.220743999999968l227.555442 0L341.333674 213.334698 113.778233 213.334698 113.778233-14.220743999999968zM739.553907 327.111907L568.889116 327.111907l0-170.666837 170.664791 0 0-56.888605 113.778233 0L853.332139 213.334698 739.553907 213.334698 739.553907 327.111907zM568.889116-127.99897699999997L796.442512-127.99897699999997 796.442512-14.220743999999968 568.889116-14.220743999999968 568.889116-127.99897699999997z"  horiz-adv-x="1024" />

    
    <glyph glyph-name="dynamic" unicode="&#58945;" d="M508.08832 790.26176c36.16768 0 69.81632-14.29504 94.208-37.84704 23.552-23.53152 38.68672-56.34048 38.68672-92.52864 0-36.12672-15.11424-68.096-38.68672-91.66848-24.3712-23.53152-58.04032-38.68672-94.208-38.68672-37.00736 0-70.656 15.1552-94.208 38.68672-24.39168 23.552-39.5264 55.52128-39.5264 91.66848 0 36.18816 15.13472 68.99712 39.5264 92.52864C437.43232 775.96672 471.06048 790.26176 508.08832 790.26176L508.08832 790.26176zM571.16672 720.44544c-15.9744 15.1552-38.7072 25.25184-63.0784 25.25184-25.23136 0-47.08352-10.09664-63.91808-25.25184-15.13472-15.11424-25.23136-37.00736-25.23136-60.55936 0-23.53152 10.09664-44.56448 25.23136-60.53888 16.83456-15.1552 38.68672-25.21088 63.91808-25.21088 24.3712 0 47.104 10.07616 63.0784 25.21088 15.99488 15.9744 25.23136 37.00736 25.23136 60.53888C596.39808 683.45856 587.1616 705.3312 571.16672 720.44544L571.16672 720.44544zM236.42112 242.74944000000005c36.16768 0 69.81632-14.31552 94.208-37.84704 24.3712-23.552 39.5264-56.36096 39.5264-92.54912 0-36.16768-15.13472-68.11648-39.5264-91.66848-24.39168-23.552-58.01984-37.84704-94.208-37.84704-37.00736 0-69.81632 14.27456-94.208 37.84704-24.39168 23.53152-39.5264 55.5008-39.5264 91.66848 0 36.18816 15.13472 68.97664 39.5264 92.54912C166.6048 228.41344000000004 199.41376 242.74944000000005 236.42112 242.74944000000005L236.42112 242.74944000000005zM299.49952 172.91264c-15.99488 15.9744-38.68672 25.25184-63.0784 25.25184-25.23136 0-47.104-9.27744-63.09888-25.25184-15.9744-15.11424-26.07104-37.00736-26.07104-60.55936 0-23.53152 10.09664-44.56448 26.07104-60.53888 15.99488-15.1552 37.84704-25.23136 63.09888-25.23136 24.39168 0 47.08352 10.07616 63.0784 25.23136 15.9744 15.9744 26.07104 37.00736 26.07104 60.53888C325.57056 135.92575999999997 315.47392 157.79840000000002 299.49952 172.91264L299.49952 172.91264zM788.15232 456.37632c37.00736 0 69.81632-14.31552 94.208-37.888 24.39168-23.53152 39.5264-56.32 39.5264-92.50816 0-36.16768-15.11424-68.13696-39.5264-91.66848-24.3712-23.57248-57.20064-37.86752-94.208-37.86752s-69.81632 14.27456-94.18752 37.86752c-24.41216 23.51104-39.54688 55.5008-39.54688 91.66848 0 36.18816 15.11424 68.95616 39.54688 92.50816C718.336 442.0608 751.16544 456.37632 788.15232 456.37632L788.15232 456.37632zM851.23072 386.56c-15.9744 15.99488-38.7072 25.25184-63.0784 25.25184-24.39168 0-47.104-9.25696-63.09888-25.25184-15.95392-15.11424-26.05056-37.00736-26.05056-60.55936 0-23.53152 10.09664-44.58496 26.05056-60.53888 15.99488-15.1552 38.7072-25.25184 63.09888-25.25184 24.3712 0 47.104 10.09664 63.0784 25.25184 15.99488 15.95392 26.07104 37.00736 26.07104 60.53888C877.32224 349.55264 867.24608 371.44575999999995 851.23072 386.56L851.23072 386.56zM476.11904 561.50016L305.39776 209.91999999999996 265.0112 229.2736 436.59264 580.85376ZM604.81536 585.87136L733.4912 438.6816 700.70272 409.25184 571.16672 556.4416Z"  horiz-adv-x="1024" />

    
    <glyph glyph-name="help" unicode="&#58956;" d="M924.356582 865.883075 188.048887 865.883075c-77.321016 0-117.774357-40.453341-117.774357-117.774357l0-709.634196 1.433652 10.786671c-0.938372-6.559393-1.433652-13.260002-1.433652-20.079314 0-77.622892 49.442062-127.064954 127.064954-127.064954l716.228381 0c22.178115 0 40.156582 17.978467 40.156582 40.157605L953.724447 51.959651 953.724447 194.002738 953.724447 836.513164c0.001023 11.391445-17.977443 29.369911-40.155559 29.369911L924.356582 865.883075zM324.406484 809.840688l174.404122 0 0-364.643907-88.593757 40.157605-85.809341-40.157605L324.407508 809.840688 324.406484 809.840688zM897.684106-41.838641 186.55486-41.838641c-33.267685 0-60.235896 26.968212-60.235896 60.235896s26.968212 60.233849 60.235896 60.233849l711.129246 0L897.684106-41.838641 897.684106-41.838641zM897.684106 134.675538 186.55486 134.675538c-21.557992 0-41.97909-4.858658-60.235896-13.533224L126.318964 756.2c0 36.551474 19.854187 53.639664 50.944276 53.639664l93.796246 0L271.059486 378.756579c0-7.402597 3.64911-13.71435 10.06831-17.406438 6.417153-3.689019 13.706163-3.671623 20.10899 0.052189l97.943706 56.984852c6.335289 3.686972 13.532201 3.742231 19.924795 0.152473l103.146195-57.905828c6.40692-3.597945 13.627369-3.533476 19.973914 0.181125 6.340405 3.712555 9.93221 9.975189 9.93221 17.327644L552.157605 809.838641l345.525478 0 0-675.164127L897.684106 134.674515 897.684106 134.675538z"  horiz-adv-x="1024" />

    
    <glyph glyph-name="second" unicode="&#59164;" d="M899.703599 627.1729c-9.394495 4.335921-20.234298 2.16796-27.460833-5.058574L709.64573 466.743825 531.872971 720.395201c-5.058574 6.503881-12.285109 10.839802-20.956951 10.839803-7.949188 0-15.898377-4.335921-20.956952-10.839803L314.35427 468.911785 161.874382 621.3916730000001c-7.226535 7.226535-18.066337 9.394495-27.460832 5.781227-9.394495-3.613267-15.898377-13.007763-15.898377-23.124911v-541.99012c0-13.730416 11.562456-25.292872 25.292872-25.292873h746.501059c13.730416 0 25.292872 11.562456 25.292872 25.292873v541.99012c-0.722653 10.117149-6.503881 18.788991-15.898377 23.124911z m-35.410021-539.822159H169.100917V229.713479h695.915314v-142.362738z m0 192.948483H169.100917V542.622442L299.9012 411.822159c5.058574-5.058574 12.285109-7.949188 20.234298-7.226534 7.226535 0.722653 14.45307 4.335921 18.78899 10.839802l172.714185 247.147495 174.159492-247.870149c4.335921-5.781228 10.839802-10.117149 18.066337-10.839802 7.226535-0.722653 14.45307 1.445307 20.234298 7.226535l140.917431 134.41355v-265.213832zM420.584333 148.053634m-27.460833 0a27.460833 27.460833 0 1 1 54.921666 0 27.460833 27.460833 0 1 1-54.921666 0ZM516.697248 148.053634m-27.460833 0a27.460833 27.460833 0 1 1 54.921665 0 27.460833 27.460833 0 1 1-54.921665 0ZM612.810162 148.053634m-27.460832 0a27.460833 27.460833 0 1 1 54.921665 0 27.460833 27.460833 0 1 1-54.921665 0Z"  horiz-adv-x="1024" />

    
    <glyph glyph-name="addup" unicode="&#58910;" d="M520.4 340.79999999999995c-34.8-2.8-75.6 25.6-108 42.8C293.2 447.2 175.6 513.2 56 576c-21.6 11.2-37.2 24.4-38.8 46-1.6 23.2 18 37.2 38 47.2 144 72.8 288.4 145.6 432.4 218.4 23.6 12 43.2 10.8 67.6-2 141.2-73.2 284.4-142.8 426-215.6 53.6-27.6 53.6-62.8 1.2-91.2-135.2-73.2-265.2-146-401.2-217.6-18.4-9.6-28.4-18-60.8-20.4zM106.8 627.6c128.8-86.8 251.6-147.6 372.8-211.2 31.6-14 52.4-12 92.8 9.2 95.2 52.4 191.6 102.8 286.8 154.8 18 10 42.8 19.6 44.4 42.8 2 26-29.6 30.8-44.8 39.2-103.2 55.2-209.6 104.8-313.6 158-20 10.4-34.4 9.2-52.4 0.4-123.2-61.6-246.4-123.2-386-193.2zM863.6 442.4c30 2.4 48.8 7.2 66.8 4.8 35.6-4.8 72.4-23.6 84-53.2 16.4-42.4-35.6-50-58.4-62.8-134-75.6-271.6-144.4-406.4-218-26.4-14.4-45.2-20.4-73.2-4.8-144 80.4-288 159.2-432.4 237.2-19.6 10.8-47.2 22.4-40 43.2 11.6 33.6 48.8 45.6 80.4 57.6 20.4 7.6 42.8 5.6 62.4-5.2 3.2-1.6 6.4-11.6 4.8-13.6-34.4-48.4-8.8-63.2 61.2-108s246-161.6 300-146c129.6 30 247.2 117.2 367.2 184.8 41.2 23.2 3.6 54.4-16.4 84zM896.4 160.79999999999995c3.2 22.8-46.4 52.8 12.4 59.6 45.2 5.2 81.6-20.4 104-49.2 23.6-30.4-16.4-41.2-39.6-53.6-144-78.4-288.4-156.8-432-236.4-24.4-13.6-42-11.2-66.4 2.4-140.8 78.8-283.2 155.6-425.2 232.8-24 13.2-69.6 25.2-34.8 59.6 29.2 29.2 70.4 62.4 122 37.6 4.4-2 8.4-15.6 6-18.8-50.8-64.4 18.4-67.2 46.8-89.2 20.8-16 239.2-126.4 324.4-169.2 122 64.4 244.4 129.2 366.4 194 12.8 7.2 16 20.8 16 30.4z"  horiz-adv-x="1024" />

    
    <glyph glyph-name="loading" unicode="&#59057;" d="M300.552 99.41399999999999q0-30.284-21.427-51.711t-51.711-21.427q-29.712 0-51.425 21.713t-21.713 51.425q0 30.284 21.427 51.711t51.711 21.427 51.711-21.427 21.427-51.711z m284.553-117.707q0-30.284-21.427-51.71t-51.71-21.428-51.712 21.427-21.427 51.711 21.427 51.711 51.711 21.427 51.711-21.427 21.427-51.71z m-402.26 402.26q0-30.284-21.427-51.71t-51.71-21.428-51.712 21.427-21.427 51.711 21.427 51.711 51.711 21.427 51.711-21.427 21.427-51.71zM869.66 99.41399999999999q0-29.712-21.713-51.425t-51.426-21.713q-30.283 0-51.71 21.427t-21.428 51.711 21.427 51.711 51.711 21.427 51.711-21.427 21.428-51.711zM318.837 668.52q0-37.711-26.856-64.567t-64.567-26.855-64.567 26.855-26.856 64.567 26.856 64.568 64.567 26.855 64.567-26.855 26.856-64.568z m668.528-284.553q0-30.284-21.427-51.71t-51.71-21.428-51.712 21.427-21.427 51.711 21.427 51.711 51.711 21.427 51.711-21.427 21.427-51.71z m-365.69 402.26q0-45.711-31.998-77.71t-77.71-31.997-77.71 31.998-31.997 77.71 31.998 77.709T511.968 895.934t77.709-31.997 31.997-77.71zM924.511 668.52q0-53.139-37.712-90.565t-90.28-37.426q-53.139 0-90.565 37.426t-37.426 90.565q0 52.569 37.426 90.28t90.565 37.712q52.569 0 90.28-37.712t37.712-90.28z"  horiz-adv-x="1024" />

    
    <glyph glyph-name="edit" unicode="&#59065;" d="M786.637-93.86699999999996H170.906c-56.593 0-102.639 46.046-102.639 102.639V692.941c0 56.593 46.046 102.639 102.639 102.639h478.925c18.91 0 34.202-15.326 34.202-34.202s-15.292-34.202-34.202-34.202H170.906c-18.842 0-34.202-15.36-34.202-34.202v-684.169c0-18.876 15.36-34.202 34.202-34.202h615.765c18.876 0 34.202 15.326 34.202 34.202V556.0989999999999c0 18.876 15.292 34.202 34.202 34.202s34.202-15.326 34.202-34.202v-547.328c0-56.593-46.046-102.639-102.639-102.639zM585.66 453.461c-8.772 0-17.51 3.345-24.166 10.035-13.38 13.38-13.38 34.987 0 48.367L901.462 851.831c13.38 13.38 34.987 13.38 48.367 0 13.38-13.38 13.38-34.987 0-48.367L609.861 463.496c-6.656-6.69-15.428-10.035-24.201-10.035z m-141.107 0H239.309c-18.876 0-34.202 15.326-34.202 34.202s15.326 34.202 34.202 34.202h205.244c18.876 0 34.202-15.326 34.202-34.202s-15.326-34.202-34.202-34.202zM649.83 248.21799999999996H239.308c-18.876 0-34.202 15.292-34.202 34.202s15.326 34.202 34.202 34.202h410.487c18.91 0 34.202-15.292 34.202-34.202 0.034-18.91-15.258-34.202-34.167-34.202z m0 0z"  horiz-adv-x="1024" />

    
    <glyph glyph-name="like" unicode="&#59167;" d="M922.779667 457.030293c-18.212804 29.308513-49.752124 47.581692-82.136695 48.545647l-200.757326 0.964977a364.94169 364.94169 0 0 1 20.142759 119.706359c0 20.263509-1.74883 41.007973-5.607718 63.38154l-3.740184 16.161074c-10.673084 46.314839-51.319829 78.758762-98.960873 78.758762-56.023968 0-101.615329-45.590338-101.615329-101.674681 0-3.257184 0.119727-6.451946 0.421602-9.105378-2.774183-99.443873-122.480542-202.083531-163.186639-202.083531h-0.060375l-149.135622-0.060376c-19.478633 0-35.338856-15.920598-35.338856-35.400254l-0.362251-417.314501c0-19.780509 17.127076-34.193777 38.59604-34.796504l129.295762 0.2415 4.944615-0.904602 4.342912 0.602727 492.093624-0.181125c17.307178 1.206478 34.011628 6.573719 48.484248 15.799848 15.679098 10.07138 28.343535 24.243147 34.073026 36.725436l6.030344 10.009981c33.892925 80.68974 75.262124 327.882656 76.950579 338.314239l0.663103 10.012028c1.687432 22.193465-3.558036 43.722804-15.136746 62.296834z m-759.669776-46.012963l80.448241 0.119727v-366.838899l-80.749093-0.240477 0.300852 366.959649z m643.460055-337.590761l-3.798513-6.030344c-3.438309-6.934946-8.683776-12.784164-15.07637-16.885575-5.850242-3.738138-12.785188-5.969968-18.031679-6.332219l-465.800795 0.181125V414.333866c79.543637 15.497972 203.53151 137.073912 206.90842 262.389012l-0.361227 6.151093c0 22.796192 18.513656 41.3692 41.308825 41.3692 19.357883 0 35.882232-13.145391 40.223097-32.022321l3.377933-14.351869c2.954285-17.308201 4.40124-34.615379 4.40124-51.500955 0-34.254152-5.729491-68.084655-17.065677-100.469225l-27.740808-79.543638 274.630824-0.060375 6.513344-0.664126c14.59337-0.542352 27.860535-8.200776 35.519982-20.503986 4.764514-7.658424 6.934946-16.5837 6.210445-30.514991-0.419556-2.409886-41.910529-250.567779-71.219041-321.185116z"  horiz-adv-x="1024" />

    
    <glyph glyph-name="notice" unicode="&#58913;" d="M928 224H832V448a320 320 0 0 1-257.28 313.664C574.912 763.904 576 765.76 576 768a64 64 0 1 1-128 0c0-2.24 1.088-4.096 1.28-6.336A319.936 319.936 0 0 1 192 448v-224H96a32 32 0 0 1 0-64h832a32 32 0 0 1 0 64zM256 224V450.816C256 590.656 370.624 704 512 704s256-113.344 256-253.184V224H256zM512 0a96 96 0 0 0-96 96h-64a160 160 0 1 1 320 0h-64A96 96 0 0 0 512 0z"  horiz-adv-x="1024" />

    
    <glyph glyph-name="daochu" unicode="&#58908;" d="M140.82998676543212-42.719266324143064h744.8649919537726c27.774627235207902 0 50.499322120301564 22.72469488509366 50.499322120301564 50.499320739460735v176.74762534979425c0 15.149797050342714-10.099864700228474 25.249660369730368-25.249660369730368 25.249660369730368s-25.249660369730368-10.099864700228474-25.24966175057119-25.249660369730368v-176.74762534979425H140.82998676543212V752.6450477499311h744.8649919537726v-156.5478973301781c0-15.149797050342714 10.099864700228474-25.249660369730368 25.24966175057119-25.249660369730368s25.249660369730368 10.099864700228474 25.249660369730368 25.249660369730368v156.5478973301781c0 27.774627235207902-22.72469488509366 50.499322120301564-50.499322120301564 50.499320739460735H140.82998676543212c-27.774627235207902 0-50.499322120301564-22.72469488509366-50.499322120301564-50.499320739460735v-744.8649933346134c0-27.774627235207902 20.19972801961613-50.499322120301564 50.499322120301564-50.499320739460735zM691.2725908344311 161.80298488001858c5.049932350114237-5.049932350114237 12.624830184865184-7.574897834750945 17.674762534979426-7.574897834750945s12.624830184865184 2.524965484636708 17.674762534979426 7.574897834750945l201.99728710036538 201.99728710036538c2.524965484636708 2.524965484636708 5.049932350114237 5.049932350114237 5.049932350114237 7.574897834750945 2.524965484636708 5.049932350114237 2.524965484636708 12.624830184865184 0 20.19972801961613-2.524965484636708 2.524965484636708-2.524965484636708 5.049932350114237-5.049932350114237 7.574899215591769l-201.99728710036538 201.9972857195246c-10.099864700228474 10.099864700228474-25.249660369730368 10.099864700228474-35.34952506995885 0s-10.099864700228474-25.249660369730368 0-35.34952506995885l159.07286281481484-159.07286281481484H375.6518320702789c-15.149797050342714 0-25.249660369730368-10.099864700228474-25.249660369730368-25.249660369730368s10.099864700228474-25.249660369730368 25.249660369730368-25.24966175057119h474.6936215789669l-159.07286281481484-159.07286281481484c-10.099864700228474-10.099864700228474-10.099864700228474-25.249660369730368 0-35.34952506995885z"  horiz-adv-x="1024" />

    
    <glyph glyph-name="setting" unicode="&#58971;" d="M64 421.3c1.2 10 5.1 19.9 11.9 28.4 6.8 8.5 15.5 14.5 25.1 17.8l86.3 30.7c4.2 11.7 8.9 23.3 14.4 34.6l-39.3 82.8c-4.3 9.1-6.3 19.5-5.1 30.2s5.3 20.5 11.5 28.4l52.9 52.9c8 6.2 17.7 10.4 28.4 11.5s21.1-0.8 30.2-5.1l82.8-39.3c11.4 5.4 22.9 10.2 34.7 14.4l30.7 86.3c3.4 9.5 9.4 18.3 17.8 25.1 8.5 6.8 18.3 10.7 28.4 11.9h74.4c10-1.2 19.9-5.1 28.4-11.9 8.5-6.8 14.5-15.5 17.8-25.1l30.7-86.3c11.7-4.2 23.3-8.9 34.7-14.4l82.8 39.3c9.1 4.3 19.5 6.3 30.2 5.1 10.8-1.2 20.5-5.3 28.4-11.5l52.9-52.9c6.2-8 10.4-17.7 11.5-28.4s-0.8-21.1-5.1-30.2l-39.3-82.8c5.4-11.3 10.2-22.9 14.4-34.6l86.3-30.7c9.5-3.4 18.3-9.4 25.1-17.8s10.7-18.3 11.9-28.4v-74.5c-1.2-10-5.1-19.9-11.9-28.4-6.8-8.5-15.5-14.5-25.1-17.8l-86.3-30.7c-4.2-11.7-8.9-23.3-14.4-34.7l39.3-82.8c4.3-9.1 6.3-19.5 5.1-30.2-1.2-10.8-5.3-20.5-11.5-28.4l-52.9-52.9c-8-6.2-17.7-10.4-28.4-11.5-10.8-1.2-21.1 0.8-30.2 5.1l-82.8 39.3c-11.4-5.4-22.9-10.2-34.7-14.4L595.4-27c-3.4-9.5-9.4-18.3-17.8-25.1-8.5-6.8-18.3-10.7-28.4-11.9h-74.4c-10 1.2-19.9 5.1-28.4 11.9-8.5 6.8-14.5 15.5-17.8 25.1l-30.7 86.3c-11.7 4.2-23.3 8.9-34.7 14.4l-82.8-39.3c-9.1-4.3-19.5-6.3-30.2-5.1s-20.5 5.3-28.4 11.5l-52.9 52.9c-6.2 8-10.4 17.7-11.5 28.4-1.2 10.8 0.8 21.1 5.1 30.2l39.3 82.8c-5.4 11.4-10.2 22.9-14.4 34.7L101 300.6c-9.5 3.4-18.3 9.4-25.1 17.8-6.8 8.5-10.7 18.3-11.9 28.4v74.5z m56.1-6.6c-1.8-20.3-1.8-41.1 0-61.3l112.3-39.9 4.2-13.5c5.3-17.6 12.5-34.7 21.2-51.2l6.6-12.5-51.1-107.6c13.3-15.5 27.8-30.1 43.4-43.4l107.6 51.1 12.5-6.6c16.5-8.7 33.6-15.9 51.2-21.2l13.5-4.2 39.9-112.3c10.1-0.9 20.3-1.4 30.6-1.4s20.5 0.5 30.6 1.4l39.9 112.3 13.5 4.2c17.6 5.3 34.7 12.5 51.2 21.2l12.5 6.6 107.6-51.1c15.5 13.3 30.1 27.8 43.4 43.4l-51.1 107.6 6.6 12.5c8.7 16.5 15.9 33.6 21.2 51.2l4.2 13.5 112.3 39.9c1.8 20.2 1.8 41 0 61.3l-112.3 39.9-4.2 13.5c-5.3 17.5-12.5 34.7-21.2 51.1l-6.6 12.5 51.1 107.6c-13.3 15.5-27.8 30.1-43.4 43.4l-107.6-51.1-12.5 6.6c-16.5 8.7-33.6 15.9-51.2 21.2l-13.5 4.2-39.9 112.3c-10.1 0.9-20.3 1.4-30.6 1.4s-20.5-0.5-30.6-1.4l-39.9-112.3-13.5-4.2c-17.6-5.3-34.7-12.5-51.2-21.2l-12.5-6.6-107.6 51.1c-15.5-13.3-30.1-27.8-43.4-43.4l51.1-107.6-6.6-12.5c-8.7-16.4-15.9-33.6-21.2-51.1l-4.2-13.5-112.3-39.9zM512 510c69.5 0 126-56.5 126-126s-56.5-126-126-126-126 56.5-126 126 56.5 126 126 126m0 56c-100.5 0-182-81.5-182-182s81.5-182 182-182 182 81.5 182 182-81.5 182-182 182z"  horiz-adv-x="1024" />

    
    <glyph glyph-name="exam" unicode="&#59131;" d="M755.2 505.7c0 11-9 20-20 20H286.5c-11 0-20-9-20-20s9-20 20-20h448.7c11 0 20 9 20 20zM679.5 368.9c0 11-9 20-20 20h-373c-11 0-20-9-20-20s9-20 20-20h372.9c11.1 0 20.1 9 20.1 20zM286.5 250.39999999999998c-11 0-20-9-20-20s9-20 20-20H529c11 0 20 9 20 20s-9 20-20 20H286.5zM367.8-24.600000000000023h-141v818H800v-293c0-11 9-20 20-20s20 9 20 20V801.6c0 17.5-14.3 31.8-31.9 31.8H218.6c-17.6 0-31.9-14.3-31.9-31.8v-834.4c0-17.5 14.3-31.8 31.9-31.8h149.1c11 0 20 9 20 20s-8.9 20-19.9 20zM820 105.29999999999995c-11 0-20-9-20-20v-109.8H691.3c-11 0-20-9-20-20s9-20 20-20h116.9c17.6 0 31.9 14.3 31.9 31.9v118c-0.1 10.9-9 19.9-20.1 19.9zM943.8 363.6l-40.4 39.7c-4.6 4.3-9.9 7.6-15.7 10s-11.8 3.6-17.7 3.6c-6 0-12-1.2-18-3.6s-11.1-5.7-15.5-10L581.3 153.39999999999998l106.6-106.6 255.8 250.7c9.2 9.1 13.9 20.1 13.9 33.1 0 12.9-4.6 23.9-13.8 33zM510.7 84.20000000000005L472.2-42l-6.1-18.8L620-19.700000000000045l38.6 37.7L552 124.60000000000002zM726.5 597.6h-429c-14.8 0-26.8 12-26.8 26.8v81.4c0 14.8 12 26.8 26.8 26.8h429c14.8 0 26.8-12 26.8-26.8v-81.4c0-14.8-12-26.8-26.8-26.8z"  horiz-adv-x="1024" />

    
    <glyph glyph-name="first" unicode="&#59047;" d="M968.533333 537.6c-8.533333 4.266667-19.2 2.133333-25.6-6.4l-108.8-130.133333-55.466666 100.266666c-4.266667 6.4-8.533333 10.666667-17.066667 10.666667-6.4 0-12.8-2.133333-19.2-6.4l-64-70.4-87.466667 164.266667 38.4 23.466666c6.4 4.266667 10.666667 10.666667 10.666667 19.2V768c0 8.533333-4.266667 14.933333-10.666667 19.2l-106.666666 64c-6.4 4.266667-14.933333 4.266667-21.333334 0l-106.666666-64c-6.4-4.266667-10.666667-10.666667-10.666667-19.2v-128c0-8.533333 4.266667-14.933333 10.666667-19.2l38.4-23.466667-87.466667-164.266666-61.866667 70.4c-6.4 6.4-12.8 8.533333-19.2 8.533333-6.4 0-12.8-4.266667-17.066666-10.666667l-57.6-100.266666L81.066667 533.333333c-6.4 8.533333-17.066667 10.666667-25.6 6.4-8.533333-6.4-14.933333-14.933333-12.8-25.6L138.666667 42.66666699999996l-21.333334-102.4c-2.133333-6.4 0-12.8 4.266667-17.066667 4.266667-6.4 10.666667-8.533333 17.066667-8.533333h744.533333c6.4 0 12.8 2.133333 17.066667 8.533333 4.266667 4.266667 6.4 10.666667 4.266666 17.066667l-19.2 102.4L981.333333 514.133333c2.133333 8.533333-4.266667 19.2-12.8 23.466667z m-211.2-83.2l49.066667-87.466667-55.466667-64-49.066666 91.733334 55.466666 59.733333zM426.666667 652.8V755.2l85.333333 51.2 85.333333-51.2v-104.533333l-85.333333-51.2-85.333333 53.333333z m-155.733334-198.4l53.333334-59.733333-49.066667-91.733334-53.333333 64 49.066666 87.466667zM164.266667-42.66666699999996l8.533333 42.666667h676.266667l8.533333-42.666667H164.266667z m678.4 89.6v-4.266666h-661.333334v4.266666L102.4 441.6l160-189.866667c4.266667-6.4 10.666667-8.533333 19.2-8.533333 6.4 0 12.8 4.266667 17.066667 10.666667l170.666666 324.266666 32-19.2c2.133333-4.266667 6.4-4.266667 10.666667-4.266666s8.533333 0 10.666667 2.133333L554.666667 576l172.8-322.133333c4.266667-6.4 8.533333-10.666667 17.066666-10.666667 6.4 0 14.933333 2.133333 19.2 8.533333l160 189.866667-81.066666-394.666667zM490.666667 149.33333300000004h42.666666v106.666667h-42.666666v-106.666667z"  horiz-adv-x="1024" />

    
    <glyph glyph-name="third" unicode="&#58936;" d="M852.5 117.39999999999998h-681c-12.2 0-22.9 8.3-25.8 20.2L65 464.7c-2.4 9.7 0.9 20 8.5 26.5s18.3 8.2 27.5 4.3l228.4-95.6 159.9 238.9c4.9 7.4 13.2 11.8 22.1 11.8h1.3c8.9 0 17.1-4.4 22.1-11.8l159.9-238.9L923 495.6c9.3 3.9 19.9 2.2 27.5-4.3 7.6-6.5 10.9-16.8 8.5-26.5l-80.7-327.1c-2.9-12-13.6-20.3-25.8-20.3z m-660.2 53.1h639.4l63.1 255.7L695 342.5c-11.7-4.9-25.3-0.8-32.3 9.7L512 577.3l-150.6-225a26.48 26.48 0 0 0-32.3-9.7l-199.9 83.7 63.1-255.8z"  horiz-adv-x="1024" />

    
    <glyph glyph-name="time" unicode="&#58880;" d="M512 861.86666667C248.08533333 861.86666667 34.13333333 647.91466667 34.13333333 384s213.952-477.86666667 477.86666667-477.86666667 477.86666667 213.952 477.86666667 477.86666667S775.91466667 861.86666667 512 861.86666667z m0-887.46666667c-226.21866667 0-409.6 183.38133333-409.6 409.6s183.38133333 409.6 409.6 409.6 409.6-183.38133333 409.6-409.6-183.38133333-409.6-409.6-409.6zM785.06666667 349.86666667a34.13333333 34.13333333 0 0 1-34.13333334 34.13333333H512V622.93333333a34.13333333 34.13333333 0 0 1-34.13333333 34.13333334 34.13333333 34.13333333 0 0 1-34.13333334-34.13333334v-273.06666666a34.13333333 34.13333333 0 0 1 34.13333334-34.13333334h273.06666666a34.13333333 34.13333333 0 0 1 34.13333334 34.13333334z"  horiz-adv-x="1024" />

    
    <glyph glyph-name="suo" unicode="&#58894;" d="M505.52442228-43.72094272000004c-243.38417943 0-441.01590567 197.63172627-441.01590572 441.01590569s197.63172627 441.01590567 441.01590572 441.01590563 441.01590567-197.63172627 441.01590567-441.01590563-197.63172627-441.01590567-441.01590567-441.01590569z m0 844.29782922c-222.15881545 0-403.28192354-181.12311197-403.2819236-403.28192353s181.12311197-403.28192354 403.2819236-403.2819235 403.28192354 181.12311197 403.28192342 403.2819235-180.65143579 403.28192354-403.28192342 403.28192353zM678.62905929 488.79986543h-37.73397823v58.48767379c0 73.58126364-60.37437066 133.48395818-134.89898273 133.48395818s-134.89898265-59.90269454-134.89898653-133.48395818v-58.48767379h-38.20565442c-42.45072796 0-76.88298497-34.43225693-76.88298491-76.88298505v-192.44330426c0-42.45072796 34.43225693-76.88298497 76.88298491-76.8829888h346.20927806c42.45072796 0 76.88298497 34.43225693 76.88298882 76.8829888v192.44330426c-0.47167617 42.45072796-34.90393309 76.88298497-77.35466497 76.88298505z m-269.32628919 58.48767379c0 52.35589966 43.39408027 95.27830378 96.69332823 95.27829991s96.69332826-42.92240414 96.69332439-95.27829991v-58.48767379h-192.91497647v58.48767379z m308.00361977-328.28563927c0-21.22536397-16.9802904-38.6773305-38.67733058-38.67733049h-346.20927801c-21.22536397 0-38.6773305 16.9802904-38.67733051 38.67733049v192.44330433c0 21.22536397 17.45196657 38.6773305 38.67733051 38.67733057h346.20927801c21.22536397 0 38.6773305-16.9802904 38.67733058-38.67733057v-192.44330433z m-211.78196759 192.44330433c-32.07388405 0-57.54432159-25.94211367-57.54432167-57.54432166 0-24.99876137 16.03694209-46.22412545 38.67733053-54.24259635v-61.31771907c0-10.84852006 8.49014714-19.33866721 19.33866719-19.33866725s19.33866721 8.49014714 19.33866343 19.33866725v61.31771907c22.16871237 8.01847098 38.6773305 29.24383495 38.67733051 54.24259635-0.94334843 32.07388405-26.41378596 57.54432159-58.48766999 57.54432166z m0 0"  horiz-adv-x="1024" />

    


  </font>
</defs>
</svg>
